<?xml version="1.0" standalone="no"?><!DOCTYPE svg PUBLIC "-//W3C//DTD SVG 1.1//EN" "http://www.w3.org/Graphics/SVG/1.1/DTD/svg11.dtd"><svg t="1625483311125" class="icon" viewBox="0 0 1024 1024" version="1.1" xmlns="http://www.w3.org/2000/svg" p-id="2595" width="128" height="128" xmlns:xlink="http://www.w3.org/1999/xlink"><defs><style type="text/css"></style></defs><path d="M369.2 307c-84.8 8-124.3-40.4-149.5-4-18 26 17.6 80.7 55.4 106.9" fill="#F5A500" p-id="2596"></path><path d="M275 417.9c-1.6 0-3.2-0.5-4.6-1.4-38.3-26.6-79.7-85.9-57.4-118.1 16.8-24.3 40-17.8 66.8-10.2 22.7 6.4 50.9 14.4 88.6 10.8 4.4-0.4 8.3 2.8 8.7 7.2 0.4 4.4-2.8 8.3-7.2 8.7-40.6 3.8-71.7-4.9-94.4-11.4-27.7-7.8-39.3-10.4-49.3 3.9-6.3 9.2-3.7 25.5 7.2 44.9 10.7 19.1 28.4 38.6 46.2 50.9 3.6 2.5 4.5 7.5 2 11.1-1.6 2.4-4.1 3.6-6.6 3.6z" fill="" p-id="2597"></path><path d="M653.5 307c84.8 8 124.3-40.4 149.5-4 18 26-17.6 80.7-55.4 106.9" fill="#F5A500" p-id="2598"></path><path d="M747.7 417.9c-2.5 0-5-1.2-6.6-3.4-2.5-3.6-1.6-8.6 2-11.1 17.8-12.4 35.5-31.9 46.2-50.9 10.9-19.4 13.5-35.7 7.2-44.9-9.9-14.4-21.6-11.8-49.3-3.9-22.7 6.4-53.8 15.2-94.4 11.4-4.4-0.4-7.6-4.3-7.2-8.7 0.4-4.4 4.3-7.6 8.7-7.2 37.6 3.6 65.9-4.4 88.6-10.8 26.8-7.6 49.9-14.1 66.8 10.2 22.3 32.2-19.1 91.4-57.4 118.1-1.5 0.8-3.1 1.2-4.6 1.2z" fill="" p-id="2599"></path><path d="M440.7 272.2c-17.2-66.3-1.5-87.5-3-105.4v-0.5c18.9-7.9 43.9-21.1 42.8-35.6-1.6-20.9-30.6-35.8-64.7-33.1-34.1 2.6-60.5 21.7-58.9 42.6 1.1 14.7 17.3 21.6 37.8 26.3l-0.1 1c-0.2 15.9-10.5 55 7.5 124" fill="#EE762B" p-id="2600"></path><path d="M401.9 299.5c-3.6 0-6.8-2.4-7.7-6-14.8-57-10.8-94.7-8.7-115 0.2-2.2 0.4-4.1 0.6-5.9-14.2-3.7-35.8-11.7-37.3-31.9-1-13 5.9-25.5 19.3-35.3 12.3-8.9 29-14.6 46.9-16 18-1.4 35.3 1.7 48.8 8.6 14.8 7.6 23.5 18.9 24.5 31.9 1.1 14.6-12.9 28.2-42.7 41.4-0.2 4.5-1 9-1.9 14-3 16.5-7.1 39.2 4.6 84.6 1.1 4.3-1.5 8.6-5.7 9.7-4.3 1.1-8.6-1.5-9.7-5.7-12.6-48.8-8-74.5-4.9-91.5 1.1-6.2 2-11.1 1.7-15.2V166c0-3.2 1.9-6.1 4.9-7.4 19.3-8.1 38.5-19.7 37.9-27.6-0.8-9.8-10.2-16-15.8-18.9-10.9-5.6-25.2-8-40.3-6.9-15.1 1.2-28.8 5.8-38.8 13-5.1 3.7-13.5 11.3-12.8 21.1 0.4 5.6 4.4 12.8 31.6 19.1 4 0.9 6.6 4.6 6.2 8.7l-0.1 0.6c-0.1 3.4-0.5 7.3-1 12.3-2.2 20.6-5.8 55.1 8.3 109.2 1.1 4.3-1.5 8.6-5.7 9.8-0.8 0.4-1.5 0.5-2.2 0.5z" fill="" p-id="2601"></path><path d="M583.9 272.7c15.7-66.6-0.5-87.5 0.7-105.4v-0.5c-19-7.5-44.3-20.2-43.5-34.6 1.1-21 29.8-36.4 64-34.6 34.2 1.9 61 20.4 59.8 41.3-0.8 14.7-16.8 21.9-37.2 27.1l0.1 1c0.6 15.9 11.7 54.8-4.8 124.2" fill="#EE762B" p-id="2602"></path><path d="M623.1 299.2c-0.6 0-1.2-0.1-1.8-0.2-4.3-1-7-5.3-5.9-9.6 12.9-54.5 8.5-88.9 5.9-109.4-0.6-4.9-1.1-8.9-1.3-12.2l-0.1-0.6c-0.5-4 2-7.8 6-8.8 27-6.9 30.9-14.2 31.2-19.8 0.5-9.8-8.1-17.2-13.2-20.8-10.1-7-24-11.3-39.1-12.1-29.2-1.6-54.7 10.8-55.6 27-0.4 7.9 19 19.1 38.5 26.7 3 1.2 5 4 5.1 7.3v1.2c-0.3 4.1 0.7 9 2 15.2 3.5 16.9 8.7 42.5-2.9 91.6-1 4.3-5.3 7-9.6 6s-7-5.3-6-9.6c10.8-45.7 6.1-68.2 2.8-84.7-1-5-2-9.6-2.3-14-30.1-12.6-44.4-25.8-43.6-40.5 1.4-25.8 33.2-44.3 72.4-42.1 18 1 34.8 6.3 47.3 14.9 13.7 9.4 20.8 21.8 20.1 34.8-1.1 20.2-22.5 28.6-36.6 32.7 0.2 1.7 0.5 3.7 0.7 5.9 2.6 20.2 7.4 57.8-6.2 115.1-0.9 3.5-4.2 6-7.8 6z" fill="" p-id="2603"></path><path d="M512.4 516m-258 0a258 258 0 1 0 516 0 258 258 0 1 0-516 0Z" fill="#FDCC00" p-id="2604"></path><path d="M512.4 274c32.7 0 64.4 6.4 94.2 19 28.8 12.2 54.7 29.6 76.9 51.9 22.2 22.2 39.7 48.1 51.9 76.9 12.6 29.8 19 61.5 19 94.2s-6.4 64.4-19 94.2c-12.2 28.8-29.6 54.7-51.9 76.9-22.2 22.2-48.1 39.7-76.9 51.9-29.8 12.6-61.5 19-94.2 19s-64.4-6.4-94.2-19c-28.8-12.2-54.7-29.6-76.9-51.9-22.2-22.2-39.7-48.1-51.9-76.9-12.6-29.8-19-61.5-19-94.2s6.4-64.4 19-94.2c12.2-28.8 29.6-54.7 51.9-76.9 22.2-22.2 48.1-39.7 76.9-51.9 29.8-12.6 61.5-19 94.2-19m0-16c-142.5 0-258 115.5-258 258s115.5 258 258 258 258-115.5 258-258-115.5-258-258-258z" fill="" p-id="2605"></path><path d="M416.3 429.2m-18 0a18 18 0 1 0 36 0 18 18 0 1 0-36 0Z" fill="" p-id="2606"></path><path d="M608.4 429.2m-18 0a18 18 0 1 0 36 0 18 18 0 1 0-36 0Z" fill="" p-id="2607"></path><path d="M472.4 645.2m-24 0a24 24 0 1 0 48 0 24 24 0 1 0-48 0Z" fill="#F5A500" p-id="2608"></path><path d="M472.4 637.2c4.4 0 8 3.6 8 8s-3.6 8-8 8-8-3.6-8-8 3.6-8 8-8m0-16c-13.3 0-24 10.7-24 24s10.7 24 24 24 24-10.7 24-24-10.8-24-24-24z" fill="" p-id="2609"></path><path d="M552.4 645.2m-24 0a24 24 0 1 0 48 0 24 24 0 1 0-48 0Z" fill="#F5A500" p-id="2610"></path><path d="M552.4 637.2c4.4 0 8 3.6 8 8s-3.6 8-8 8-8-3.6-8-8 3.6-8 8-8m0-16c-13.3 0-24 10.7-24 24s10.7 24 24 24 24-10.7 24-24-10.7-24-24-24z" fill="" p-id="2611"></path><path d="M512.4 713.1c-68 0-133.6-10-195.5-28.7 47.3 54.9 117.3 89.6 195.5 89.6s148.1-34.7 195.5-89.6c-61.9 18.7-127.5 28.7-195.5 28.7z" fill="#FFFFFF" p-id="2612"></path><path d="M375.5 715.6c44.9 9 90.7 13.6 136.9 13.6s92-4.5 136.9-13.6c-10.9 7.5-22.4 14.1-34.4 19.7-32.2 15.1-66.7 22.7-102.5 22.7s-70.3-7.6-102.5-22.7c-11.9-5.6-23.5-12.2-34.4-19.7m332.3-31.2z m0 0c-61.9 18.7-127.5 28.7-195.5 28.7s-133.6-10-195.5-28.7c47.3 54.9 117.3 89.6 195.5 89.6s148.2-34.7 195.5-89.6z" fill="" p-id="2613"></path></svg>