<?xml version="1.0" standalone="no"?><!DOCTYPE svg PUBLIC "-//W3C//DTD SVG 1.1//EN" "http://www.w3.org/Graphics/SVG/1.1/DTD/svg11.dtd"><svg t="1625474976104" class="icon" viewBox="0 0 1024 1024" version="1.1" xmlns="http://www.w3.org/2000/svg" p-id="5576" width="32" height="32" xmlns:xlink="http://www.w3.org/1999/xlink"><defs><style type="text/css"></style></defs><path d="M512 512.002m-511.998 0a511.998 511.998 0 1 0 1023.996 0 511.998 511.998 0 1 0-1023.996 0Z" fill="#323232" p-id="5577"></path><path d="M512 512.002m-407.00441 0a407.00441 407.00441 0 1 0 814.00882 0 407.00441 407.00441 0 1 0-814.00882 0Z" fill="#494A4A" p-id="5578"></path><path d="M719.731189 468.37417c54.237788 0 98.209616-43.971828 98.209616-98.209616 0-54.241788-43.971828-98.213616-98.209616-98.213616-54.241788 0-98.213616 43.971828-98.213617 98.213616a97.729618 97.729618 0 0 0 16.559936 54.575787l-85.691666 65.395744c-14.771942-16.617935-36.295858-27.095894-60.277764-27.095894a80.285686 80.285686 0 0 0-35.98186 8.473967l-38.31785-64.373748c12.72795-9.695962 20.951918-25.005902 20.951918-42.243835 0-29.315885-23.765907-53.081793-53.079793-53.081793-29.315885 0-53.081793 23.765907-53.081792 53.081793 0 29.313885 23.765907 53.079793 53.081792 53.079792 7.77997 0 15.161941-1.687993 21.817915-4.695981l38.323851 64.381748c-20.773919 14.587943-34.363866 38.711849-34.363866 66.025742 0 3.801985 0.281999 7.537971 0.791997 11.199956L190.165257 603.115644c-5.563978-14.271944-19.407924-24.401905-35.645861-24.401905-21.143917 0-38.28385 17.139933-38.28385 38.283851 0 21.141917 17.139933 38.28185 38.28385 38.28185 21.141917 0 38.28185-17.139933 38.281851-38.28185 0-0.725997-0.068-1.433994-0.108-2.151992l222.095133-48.229811c6.739974 22.757911 23.245909 41.307839 44.669825 50.809801l-31.789876 89.201652c-0.297999-0.012-0.587998-0.044-0.889996-0.044-11.275956 0-20.41592 9.139964-20.41592 20.41592 0 11.273956 9.139964 20.41392 20.41592 20.41392 11.273956 0 20.41392-9.139964 20.41392-20.41392 0-6.697974-3.239987-12.623951-8.219968-16.345936l31.787876-89.197652a80.641685 80.641685 0 0 0 21.347917 2.877989 80.247687 80.247687 0 0 0 45.461822-14.039945l87.375659 109.519572c-13.743946 13.003949-22.331913 31.403877-22.331913 51.817798 0 39.401846 31.943875 71.345721 71.347721 71.345721 39.401846 0 71.343721-31.943875 71.343722-71.345721 0-39.405846-31.943875-71.347721-71.343722-71.347721a71.001723 71.001723 0 0 0-39.649845 12.029953L546.941864 602.797645c15.869938-14.727942 25.809899-35.75386 25.809899-59.111769 0-16.245937-4.819981-31.355878-13.083949-44.015828l85.695665-65.397744c18.00993 20.873918 44.635826 34.101867 74.36771 34.101866z" fill="#323232" p-id="5579"></path><path d="M739.625111 436.690294c54.237788 0 98.209616-43.971828 98.209616-98.209616 0-54.241788-43.971828-98.213616-98.209616-98.213617-54.241788 0-98.213616 43.971828-98.213617 98.213617a97.729618 97.729618 0 0 0 16.559936 54.575787l-85.691665 65.395744c-14.771942-16.617935-36.295858-27.095894-60.277765-27.095894a80.285686 80.285686 0 0 0-35.981859 8.473967l-38.317851-64.373749c12.72795-9.695962 20.951918-25.007902 20.951918-42.243835 0-29.315885-23.765907-53.081793-53.079792-53.081792-29.315885 0-53.081793 23.765907-53.081793 53.081792 0 29.313885 23.765907 53.079793 53.081793 53.079793 7.77997 0 15.161941-1.687993 21.817914-4.695982l38.323851 64.381749c-20.771919 14.587943-34.361866 38.711849-34.361866 66.025742 0 3.801985 0.281999 7.537971 0.791997 11.199956l-222.087133 48.229812c-5.563978-14.271944-19.407924-24.401905-35.64586-24.401905-21.143917 0-38.28385 17.139933-38.283851 38.283851 0 21.141917 17.139933 38.28185 38.283851 38.28185 21.141917 0 38.28185-17.139933 38.28185-38.28185 0-0.725997-0.068-1.433994-0.107999-2.151992l222.095132-48.229812c6.739974 22.757911 23.245909 41.307839 44.669826 50.809802l-31.789876 89.201651c-0.297999-0.012-0.587998-0.044-0.889997-0.043999-11.275956 0-20.41592 9.139964-20.41592 20.41592 0 11.273956 9.139964 20.41392 20.41592 20.41392 11.273956 0 20.41392-9.139964 20.41392-20.41392 0-6.697974-3.239987-12.623951-8.219967-16.345936l31.787875-89.197652a80.641685 80.641685 0 0 0 21.347917 2.877989 80.247687 80.247687 0 0 0 45.461822-14.039945l87.375659 109.519572c-13.743946 13.003949-22.331913 31.403877-22.331913 51.817798 0 39.401846 31.943875 71.345721 71.347722 71.345721 39.401846 0 71.343721-31.943875 71.343721-71.345721 0-39.405846-31.943875-71.347721-71.343721-71.347722a71.001723 71.001723 0 0 0-39.649845 12.029953l-87.371659-109.513572c15.869938-14.727942 25.809899-35.75386 25.809899-59.111769 0-16.245937-4.819981-31.355878-13.083949-44.015828l85.695665-65.397745c18.01193 20.867918 44.637826 34.097867 74.36971 34.097867z" fill="#CDCCCA" p-id="5580"></path><path d="M479.336128 484.688107m-27.313894 0a27.313893 27.313893 0 1 0 54.627787 0 27.313893 27.313893 0 1 0-54.627787 0Z" fill="#E8E9EC" p-id="5581"></path><path d="M699.845266 305.216808m-33.26387 0a33.26387 33.26387 0 1 0 66.52774 0 33.26387 33.26387 0 1 0-66.52774 0Z" fill="#E8E9EC" p-id="5582"></path><path d="M158.907379 572.345764m-12.965949 0a12.965949 12.965949 0 1 0 25.931899 0 12.965949 12.965949 0 1 0-25.931899 0Z" fill="#E8E9EC" p-id="5583"></path><path d="M664.957403 715.781204m-24.163906 0a24.163906 24.163906 0 1 0 48.327811 0 24.163906 24.163906 0 1 0-48.327811 0Z" fill="#E8E9EC" p-id="5584"></path><path d="M438.404287 688.397311m-6.913973 0a6.913973 6.913973 0 1 0 13.827946 0 6.913973 6.913973 0 1 0-13.827946 0Z" fill="#E8E9EC" p-id="5585"></path><path d="M384.0745 315.232769m-17.97793 0a17.97793 17.97793 0 1 0 35.955859 0 17.97793 17.97793 0 1 0-35.955859 0Z" fill="#E8E9EC" p-id="5586"></path></svg>